<svg width="229" height="310" viewBox="0 0 229 310" fill="none" xmlns="http://www.w3.org/2000/svg">
<rect x="103" y="238.707" width="16.9286" height="86.5044" transform="rotate(-34.9884 103 238.707)" fill="#1742B1"/>
<path fill-rule="evenodd" clip-rule="evenodd" d="M80 250C113.137 250 140 223.137 140 190C140 156.863 113.137 130 80 130C46.8629 130 20 156.863 20 190C20 223.137 46.8629 250 80 250ZM80.5 234C105.077 234 125 214.077 125 189.5C125 164.923 105.077 145 80.5 145C55.9233 145 36 164.923 36 189.5C36 214.077 55.9233 234 80.5 234Z" fill="#1742B1"/>
<path d="M0.58523 84.939L115.168 167.273L113.997 1.00001L0.58523 84.939Z" fill="#1742B1"/>
<path d="M227.769 83.1348L114.548 167.331L113 1.06119L227.769 83.1348Z" fill="#577EE3"/>
<circle cx="114" cy="141" r="57" fill="#506DB9"/>
<path fill-rule="evenodd" clip-rule="evenodd" d="M166.199 119H61C69.6085 98.4424 89.9173 84 113.599 84C137.281 84 157.59 98.4424 166.199 119Z" fill="#829DE0"/>
</svg>
