<svg width="544" height="442" viewBox="0 0 544 442" fill="none" xmlns="http://www.w3.org/2000/svg">
<rect x="1.54077" y="0.0878906" width="384" height="116" rx="5" fill="#E5E7EB"/>
<rect x="128.969" width="384" height="128.973" rx="5" transform="rotate(89.5589 128.969 0)" fill="#E5E5E5"/>
<rect x="384.52" y="389.079" width="384" height="116" rx="5" transform="rotate(-179.404 384.52 389.079)" fill="#E5E7EB"/>
<rect x="120.541" y="88.0879" width="265" height="56" rx="5" fill="#3B82F6"/>
<rect x="119.541" y="241.088" width="254" height="56" rx="5" fill="#3B82F6"/>
<rect x="2" y="385" width="372" height="56" rx="5" fill="#3B82F6"/>
<rect x="175.976" y="88.77" width="208.416" height="56" rx="5" transform="rotate(90.3949 175.976 88.77)" fill="#3B82F6"/>
<rect x="385.812" y="241.118" width="199.862" height="57.1669" transform="rotate(90.0299 385.812 241.118)" fill="#3B82F6"/>
<rect x="407" y="341" width="20" height="100" rx="5" fill="#E5E5E5"/>
<rect x="448" y="346" width="20" height="95" rx="5" fill="#E5E5E5"/>
<rect x="523" y="342" width="20" height="99" rx="5" fill="#E5E5E5"/>
<rect x="543.056" y="341.639" width="20" height="94.9239" rx="5" transform="rotate(90.3856 543.056 341.639)" fill="#E5E5E5"/>
<rect x="542.08" y="420.565" width="20.7447" height="92.9979" rx="5" transform="rotate(90.3856 542.08 420.565)" fill="#E5E5E5"/>
<ellipse cx="417" cy="322" rx="10" ry="12" fill="#E5E5E5"/>
</svg>
